<?xml version="1.0" encoding="utf-8"?>
<!-- Generator: Adobe Illustrator 21.0.0, SVG Export Plug-In . SVG Version: 6.00 Build 0)  -->
<svg version="1.1" id="Laag_1" xmlns="http://www.w3.org/2000/svg" xmlns:xlink="http://www.w3.org/1999/xlink" x="0px" y="0px"
	 viewBox="0 0 337.1 337.1" style="enable-background:new 0 0 337.1 337.1;" xml:space="preserve">
<style type="text/css">
	.st0{display:none;stroke:#000000;stroke-miterlimit:10;}
	.st1{fill:#870000;stroke:#CCCCCC;stroke-miterlimit:10;}
	.st2{fill:#F2F2F2;}
	.st3{fill:#EAF280;}
	.st4{font-family:'Roboto-Regular';}
	.st5{font-size:55.3672px;}
	.st6{font-size:10.9401px;}
</style>
<rect x="-1.8" y="-21.9" class="st0" width="825" height="825"/>
<rect x="110.6" y="110.6" class="st1" width="115.8" height="115.8"/>
<polygon class="st2" points="170.2,138.1 148.6,199 191.7,199 "/>
<g>
	<g>
		<polygon class="st2" points="182.8,87 168.5,60.6 154.3,87 162.2,87 162.2,110.6 174.9,110.6 174.9,87 		"/>
	</g>
</g>
<g>
	<g>
		<polygon class="st2" points="276.4,168.5 250.1,154.3 250.1,162.2 226.4,162.2 226.4,174.9 250.1,174.9 250.1,182.8 		"/>
	</g>
</g>
<g>
	<g>
		<polygon class="st2" points="174.9,250.1 174.9,226.4 162.2,226.4 162.2,250.1 154.3,250.1 168.5,276.4 182.8,250.1 		"/>
	</g>
</g>
<g>
	<g>
		<polygon class="st2" points="110.6,162.2 86.9,162.2 86.9,154.3 60.6,168.5 86.9,182.8 86.9,174.9 110.6,174.9 		"/>
	</g>
</g>
<g>
	<text transform="matrix(1 0 0 1 156.8098 51.7029)" class="st3 st4 st5">F</text>
</g>
<text transform="matrix(1 0 0 1 180.3191 101.9651)" class="st2 st4 st6">Forward</text>
<text transform="matrix(1 0 0 1 230.5769 194.8352)" class="st2 st4 st6">Right</text>
<text transform="matrix(1 0 0 1 80.3474 195.9295)" class="st2 st4 st6">Left</text>
<text transform="matrix(1 0 0 1 182.8167 242.3655)" class="st2 st4 st6">Back</text>
<g>
	<text transform="matrix(1 0 0 1 20.7107 187.1868)" class="st3 st4 st5">L</text>
</g>
<g>
	<text transform="matrix(1 0 0 1 281.3835 187.1868)" class="st3 st4 st5">R</text>
</g>
<g>
	<text transform="matrix(1 0 0 1 150.2693 324.8572)" class="st3 st4 st5">B</text>
</g>
</svg>
